# xmcd CD database file generated by OrangeCD 5.2
#
# Track frame offsets:
#	150
#	15514
#	32602
#	47988
#	63819
#	82789
#	92411
#	106046
#	122407
#	141419
#	151678
#	164767
#	180565
#	194464
#	212465
#	234470
#	258965
#	274278
#	289432
#	303922
#	320007
#
# Disc length: 4470 seconds
#
# Revision: 0
# Processed by: cddbd v1.5.1PL0 Copyright (c) Steve Scherf et al.
# Submitted via: OrangeCD 5.2
#
DISCID=18117415
DTITLE=Johnny Cash - Heroes and Friends Volume 5
DYEAR=1900
DGENRE=Country
TTITLE0=Johnny Cash and June Carter Cash - Cowboys And Ladies
TTITLE1=Johnny Cash and Rodney Crowell - I Walk The Line Revisited
TTITLE2=I Was My Face In The Morning Dew
TTITLE3=Johnny Cash, Trick Pony and Waylon Jennings - Big River
TTITLE4=I Am A Pilgrim
TTITLE5=Johnny Cash and June Carter Cash - Temptation
TTITLE6=I'm On Fire
TTITLE7=Johnny Cash and Rosanne Cash - September When It Comes
TTITLE8=Tears In The Holston River
TTITLE9=The Pilgrim - Outro
TTITLE10=Johnny Cash and June Carter Cash - The Road To Kaintuck
TTITLE11=Johnny Cash and Emmylou Harris - Old Rugged Cross
TTITLE12=Heroes In Black And White
TTITLE13=Johnny Cash and John Carter Cash - Wayworn Traveler
TTITLE14=Johnny Cash and Dave Matthews - For You
TTITLE15=Johnny Cash, Don Henley and Earl Scrugg - Passin' Thru
TTITLE16=Johnny Cash, Pam Tillis and The Jordanaires - Keep Your Eyes On Jesus
TTITLE17=Johnny Cash and Laura Cash - I Still Miss Someone
TTITLE18=I Dreamed About Mama Last Night
TTITLE19=Johnny Cash and June Carter Cash - Far Side Banks Of Jordan
TTITLE20=Johnny Cash, Janette Carter and June Carter Cash - Meet Me In Heaven
EXTD=
EXTT0=
EXTT1=
EXTT2=
EXTT3=
EXTT4=
EXTT5=
EXTT6=
EXTT7=
EXTT8=
EXTT9=
EXTT10=
EXTT11=
EXTT12=
EXTT13=
EXTT14=
EXTT15=
EXTT16=
EXTT17=
EXTT18=
EXTT19=
EXTT20=
PLAYORDER=
